<svg xmlns:xlink="http://www.w3.org/1999/xlink" xmlns="http://www.w3.org/2000/svg" width="38" height="33.25" id="screenshot-3e729dd8-e468-803c-8003-b83b80eb22b7" viewBox="1872.5 -1794.625 38 33.25" style="-webkit-print-color-adjust: exact;" fill="none" version="1.1"><g id="shape-3e729dd8-e468-803c-8003-b83b80eb22b7"><g class="fills" id="fills-3e729dd8-e468-803c-8003-b83b80eb22b7"><path rx="0" ry="0" d="M1910.490,-1778.032C1910.490,-1776.864,1909.500,-1775.948,1908.379,-1775.948L1906.267,-1775.948L1906.314,-1765.544C1906.314,-1765.369,1906.300,-1765.194,1906.281,-1765.018L1906.281,-1763.973C1906.281,-1762.537,1905.100,-1761.375,1903.642,-1761.375L1902.586,-1761.375C1902.513,-1761.375,1902.441,-1761.375,1902.368,-1761.381C1902.276,-1761.375,1902.183,-1761.375,1902.091,-1761.375L1899.947,-1761.375L1898.363,-1761.375C1896.905,-1761.375,1895.724,-1762.537,1895.724,-1763.973L1895.724,-1765.531L1895.724,-1769.688C1895.724,-1770.837,1894.781,-1771.766,1893.613,-1771.766L1889.390,-1771.766C1888.223,-1771.766,1887.279,-1770.837,1887.279,-1769.688L1887.279,-1765.531L1887.279,-1763.973C1887.279,-1762.537,1886.098,-1761.375,1884.640,-1761.375L1883.056,-1761.375L1880.952,-1761.375C1880.853,-1761.375,1880.754,-1761.381,1880.655,-1761.388C1880.576,-1761.381,1880.497,-1761.375,1880.417,-1761.375L1879.362,-1761.375C1877.904,-1761.375,1876.723,-1762.537,1876.723,-1763.973L1876.723,-1771.246C1876.723,-1771.305,1876.723,-1771.369,1876.729,-1771.428L1876.729,-1775.948L1874.611,-1775.948C1873.424,-1775.948,1872.500,-1776.857,1872.500,-1778.032C1872.500,-1778.617,1872.698,-1779.136,1873.160,-1779.591L1890.076,-1794.105C1890.538,-1794.560,1891.066,-1794.625,1891.528,-1794.625C1891.990,-1794.625,1892.518,-1794.495,1892.914,-1794.170L1909.764,-1779.591C1910.292,-1779.136,1910.556,-1778.617,1910.490,-1778.032ZL1910.490,-1778.032Z" style="fill: rgb(0, 0, 0); fill-opacity: 1;"/></g></g></svg>