<svg xmlns:xlink="http://www.w3.org/1999/xlink" xmlns="http://www.w3.org/2000/svg" width="26" height="34.577" id="screenshot-3e729dd8-e468-803c-8003-b83b80eb22ae" viewBox="2007.5 -1795.288 26 34.577" style="-webkit-print-color-adjust: exact;" fill="none" version="1.1"><g id="shape-3e729dd8-e468-803c-8003-b83b80eb22ae"><g class="fills" id="fills-3e729dd8-e468-803c-8003-b83b80eb22ae"><path rx="0" ry="0" d="M2022.105,-1761.488C2025.578,-1765.835,2033.500,-1776.371,2033.500,-1782.288C2033.500,-1789.466,2027.677,-1795.288,2020.500,-1795.288C2013.323,-1795.288,2007.500,-1789.466,2007.500,-1782.288C2007.500,-1776.371,2015.422,-1765.835,2018.895,-1761.488C2019.728,-1760.453,2021.272,-1760.453,2022.105,-1761.488ZZM2020.500,-1786.622C2022.893,-1786.622,2024.833,-1784.682,2024.833,-1782.288C2024.833,-1779.895,2022.893,-1777.955,2020.500,-1777.955C2018.107,-1777.955,2016.167,-1779.895,2016.167,-1782.288C2016.167,-1784.682,2018.107,-1786.622,2020.500,-1786.622ZZ" style="fill: rgb(0, 0, 0); fill-opacity: 1;"/></g></g></svg>